<?xml version="1.0" standalone="no"?>
<!DOCTYPE svg PUBLIC "-//W3C//DTD SVG 1.1//EN" "http://www.w3.org/Graphics/SVG/1.1/DTD/svg11.dtd" >
<svg xmlns="http://www.w3.org/2000/svg">
<metadata>
<json>
<![CDATA[
{
	"fontFamily": "recording",
	"majorVersion": 1,
	"minorVersion": 0,
	"version": "Version 1.0",
	"fontId": "recording",
	"psName": "recording",
	"subFamily": "Regular",
	"fullName": "recording",
	"description": "Font generated by IcoMoon."
}
]]>
</json>
</metadata>
<defs>
<font id="recording" horiz-adv-x="1024">
<font-face units-per-em="1024" ascent="960" descent="-64" />
<missing-glyph horiz-adv-x="1024" />
<glyph unicode="&#x20;" horiz-adv-x="512" d="" />
<glyph unicode="&#xe900;" glyph-name="promotion-1" data-tags="technology-1" d="M359.794 625.818c18.274 0 33.069 14.824 33.069 33.069s-14.79 33.069-33.069 33.069c-71.026 0-128.828-49.807-128.828-111.046v-281.779c0-61.24 57.802-111.046 128.828-111.046 18.274 0 33.069 14.807 33.069 33.069s-14.79 33.052-33.069 33.052c-33.968 0-62.695 20.558-62.695 44.914v281.796c0 24.339 28.727 44.914 62.695 44.914zM759.966-24.002c5.543 0 11.085 1.392 16.123 4.197 10.453 5.844 16.946 16.882 16.946 28.872v876.14c0 12.082-6.603 23.202-17.199 28.999-10.58 5.797-23.486 5.386-33.684-1.142l-322.037-205.987c-9.519-6.064-15.252-16.564-15.252-27.84v-471.69c0-11.479 5.937-22.141 15.724-28.124l321.991-198.497c5.351-3.276 11.386-4.927 17.387-4.927zM726.885 68.278l-255.887 157.717v435.125l255.887 163.688v-756.529z" />
<glyph unicode="&#xe901;" glyph-name="placeholder-for-map" data-tags="placeholder-for-map" horiz-adv-x="1088" d="M540.942 953.060c-205.961 6.941-375.101-157.951-375.101-362.344 0-231.963 222.606-400.307 347.376-642.407 6.335-12.292 24.030-12.308 30.386-0.018 112.873 217.841 305.787 363.916 341.538 573.781 37.017 217.169-124.027 423.565-344.201 430.988zM528.392 400.808c-104.882 0-189.907 85.028-189.907 189.907s85.028 189.907 189.907 189.907c104.882 0 189.909-85.028 189.909-189.907s-85.028-189.907-189.909-189.907z" />
<glyph unicode="&#xe902;" glyph-name="pause-circle" data-tags="music-3" d="M512 960c-282.8 0-512-229.2-512-512s229.2-512 512-512c282.8 0 512 229.2 512 512s-229.2 512-512 512zM512 32c-229.8 0-416 186.2-416 416s186.2 416 416 416c229.7 0 416-186.3 416-416 0-229.8-186.3-416-416-416zM472 194h-125v520h125v-520zM679 195h-125v520h125v-520z" />
<glyph unicode="&#xe903;" glyph-name="audio" data-tags="audio" d="M828.274 796.271c-82.832 84.716-193.905 131.779-312.505 131.779-244.736 1.884-444.288-195.789-446.168-440.521l-1.884-265.442c0-22.59 15.061-39.532 37.652-39.532h1.884c20.71 0 37.652 16.942 37.652 39.532l3.764 265.442c1.884 199.552 163.784 361.453 363.336 361.453 99.777 0 192.021-39.532 261.678-109.189 67.773-69.654 103.542-160.020 103.542-257.911l-1.884-265.442c0-22.59 16.942-39.532 39.532-39.532 20.71 0 39.532 18.826 39.532 39.532l1.884 265.442c0 118.6-45.184 229.674-128.015 314.389zM655.075 478.114c-18.826 0-35.768-15.061-35.768-33.885l-1.884-440.521c0-18.826 15.061-35.768 33.885-35.768h1.884c135.547 0 173.195 84.716 173.195 129.899l1.884 248.5c0 3.764 0 35.768-22.59 67.773-20.71 28.237-64.006 64.006-150.605 64.006zM758.617 99.719c0-9.411-7.531-50.831-73.421-60.242l3.764 367.1c65.89-11.295 71.537-50.831 71.537-60.242l-1.884-246.616zM378.338 479.998h-1.884c-135.547 0-173.195-84.716-173.195-129.899l-1.884-246.616c0-3.764 0-37.652 22.59-69.654 20.71-28.237 64.006-64.006 150.605-64.006 18.826 0 33.885 15.061 33.885 33.885l3.764 442.405c0 18.826-15.061 33.885-33.885 33.885zM340.686 41.357c-65.89 11.295-71.537 50.831-71.537 60.242l1.884 248.5c0 9.411 7.531 48.947 73.421 58.358l-3.764-367.1z" />
<glyph unicode="&#xe904;" glyph-name="settings" data-tags="settings" d="M541.848 460.899v470.319c0 15.99-12.792 28.782-28.782 28.782s-28.782-12.792-28.782-28.782v-470.319c-66.732-13.432-117.26-72.488-117.26-143.27s50.528-129.839 117.26-143.27v-209.362c0-15.99 12.792-28.782 28.782-28.782s28.782 12.792 28.782 28.782v209.362c66.732 13.432 117.26 72.488 117.26 143.27 0 70.569-50.315 129.839-117.26 143.27zM513.066 229.15c-48.823 0-88.478 39.655-88.478 88.478s39.655 88.478 88.478 88.478 88.478-39.655 88.478-88.478-39.655-88.478-88.478-88.478zM189.428 702.241v228.977c0 15.99-12.792 28.782-28.782 28.782s-28.782-12.792-28.782-28.782v-228.977c-66.732-13.432-117.26-72.488-117.26-143.27s50.528-129.839 117.26-143.27v-450.705c0-15.99 12.792-28.782 28.782-28.782s28.782 12.792 28.782 28.782v450.918c66.732 13.432 117.26 72.488 117.26 143.27s-50.528 129.626-117.26 143.057zM160.646 470.493c-48.823 0-88.478 39.655-88.478 88.478s39.655 88.478 88.478 88.478 88.478-39.655 88.478-88.478-39.868-88.478-88.478-88.478zM892.136 702.241v228.977c0 15.99-12.792 28.782-28.782 28.782s-28.782-12.792-28.782-28.782v-228.977c-66.732-13.432-117.26-72.488-117.26-143.27s50.528-129.839 117.26-143.27v-450.918c0-15.99 12.792-28.782 28.782-28.782s28.782 12.792 28.782 28.782v451.131c66.732 13.432 117.26 72.488 117.26 143.27s-50.315 129.626-117.26 143.057zM863.354 470.493c-48.823 0-88.478 39.655-88.478 88.478s39.655 88.478 88.478 88.478 88.478-39.655 88.478-88.478-39.655-88.478-88.478-88.478z" />
<glyph unicode="&#xe905;" glyph-name="mic" data-tags="tool-1" d="M641.619 117.455h-103.691v79.075c139.932 13.15 249.924 131.204 249.924 274.6v138.895c0 14.304-11.604 25.928-25.928 25.928h-26.71c-14.285 0-25.908-11.623-25.908-25.928 0-14.324 11.623-25.947 25.908-25.947l0.802-112.928c0-123.514-100.482-224.055-224.016-224.055s-224.075 100.521-224.075 224.055v112.928h0.841c14.304 0 25.928 11.623 25.928 25.947 0 14.304-11.623 25.928-25.928 25.928h-26.769c-14.304 0-25.928-11.623-25.928-25.928v-138.895c0-143.395 109.973-261.45 250.002-274.6v-79.036h-103.691c-85.767 0-155.547-69.8-155.547-155.567 0-14.304 11.623-25.928 25.928-25.928h518.457c14.304 0 25.947 11.623 25.947 25.928 0 85.767-69.78 155.527-155.547 155.527zM281.957-12.184c11.526 44.674 52.208 77.783 100.424 77.783h259.239c48.216 0 88.859-33.051 100.424-77.783h-460.086zM512 324.838c85.767 0 155.527 69.78 155.527 155.567v324.068c0 85.748-69.76 155.527-155.527 155.527s-155.547-69.78-155.547-155.547v-324.048c0-85.787 69.78-155.567 155.547-155.567zM408.309 804.473c0 57.158 46.533 103.672 103.691 103.672s103.691-46.513 103.691-103.672v-324.068c0-57.158-46.533-103.711-103.691-103.711s-103.691 46.553-103.691 103.711v324.068zM475.447 727.022c13.502 0 24.46 11.584 24.46 25.889 0 14.285-10.958 25.889-24.46 25.889s-24.46-11.604-24.46-25.889c0-14.304 10.958-25.889 24.46-25.889zM531.549 752.911c0-14.304 10.958-25.889 24.46-25.889 13.482 0 24.46 11.584 24.46 25.889 0 14.285-10.978 25.889-24.46 25.889-13.502 0-24.46-11.604-24.46-25.889zM515.738 807.584c13.502 0 24.46 11.604 24.46 25.889s-10.958 25.889-24.46 25.889-24.46-11.604-24.46-25.889 10.939-25.889 24.46-25.889z" />
<glyph unicode="&#xe906;" glyph-name="promotion" data-tags="promotion" d="M890.938 816.696c-42.524 0-78.394-28.954-88.984-68.174l-585.156-169.886c-14.604 31.668-46.634 53.712-83.732 53.712-50.824 0-92.174-41.35-92.174-92.174v-184.348c0-50.824 41.35-92.174 92.174-92.174 37.098 0 69.128 22.046 83.732 53.712l69.891-20.292v-55.294c0-41.018 26.396-76.498 65.688-88.288l184.348-55.304c8.846-2.654 17.842-3.962 26.754-3.962 19.478 0 38.552 6.245 54.754 18.298 23.612 17.572 37.152 44.524 37.152 73.95v3.558l146.572-42.554c10.588-39.222 46.46-68.174 88.984-68.174 50.824 0 92.174 41.35 92.174 92.174v553.046c0 50.824-41.35 92.174-92.174 92.174zM163.789 355.826c0-16.94-13.784-30.724-30.724-30.724s-30.724 13.784-30.724 30.724v184.348c0 16.94 13.784 30.724 30.724 30.724s30.724-13.784 30.724-30.724v-184.348zM593.932 186.476c0-9.808-4.514-18.794-12.382-24.648-7.87-5.856-17.774-7.596-27.17-4.78l-184.346 55.304c-13.098 3.932-21.896 15.756-21.896 29.428v37.452l245.798-71.362v-21.398zM798.764 212.39l-164.946 47.888c-0.024 0.008-0.054 0.016-0.078 0.023l-408.5 118.6v138.198l573.528 166.506v-471.216zM921.662 171.478c0-16.94-13.784-30.724-30.724-30.724s-30.724 13.784-30.724 30.724v553.044c0 16.94 13.784 30.724 30.724 30.724s30.724-13.784 30.724-30.724v-553.044z" />
<glyph unicode="&#xe907;" glyph-name="interface" data-tags="interface" d="M860.556 896h-697.124c-44.090 0-79.972-35-79.972-77.909v-584.349c0-43.002 35.882-77.921 79.972-77.921h290.132l105.195-140.31c7.331-9.736 18.867-15.528 31.162-15.528 12.237 0 23.818 5.792 31.162 15.528l105.195 140.31h134.31c44.1 0 79.972 34.916 79.972 77.921v584.349c-0.029 42.908-35.906 77.909-79.996 77.909zM860.556 233.754h-153.77c-12.283 0-23.818-5.797-31.166-15.609l-85.715-114.271-85.715 114.271c-7.331 9.813-18.908 15.609-31.162 15.609h-311.651l2.063 584.343h699.163l-2.045-584.343zM784.694 723.14h-545.381v-77.921h545.381v77.921zM784.694 567.306h-545.381v-77.909h545.381v77.909zM784.694 411.477h-545.381v-77.896h545.381v77.896z" />
<glyph unicode="&#xe908;" glyph-name="facebook-logo" data-tags="facebook-logo" d="M590.924 624.472v88.231c0 13.245 0.609 23.505 1.848 30.752 1.234 7.258 4.041 14.397 8.399 21.444 4.351 7.043 11.395 11.905 21.124 14.599 9.741 2.699 22.686 4.044 38.848 4.044h88.227v176.458h-141.047c-81.613 0-140.229-19.363-175.855-58.089-35.622-38.735-53.432-95.79-53.432-171.187v-106.249h-105.644v-176.471h105.638v-511.999h211.894v511.997h141.038l18.643 176.471h-159.679z" />
<glyph unicode="&#xe909;" glyph-name="twitter-logo" data-tags="twitter-letter-logo" d="M745.493 212.041h-232.926c-32.378 0-59.915 11.328-82.537 34.088-22.731 22.783-33.961 50.314-33.961 82.842v82.905h331.902c29.937 0 55.719 10.752 77.137 32.119 21.407 21.545 32.159 47.292 32.159 77.261 0 30.070-10.752 55.788-32.223 77.261-21.493 21.418-47.356 32.159-77.419 32.159h-331.563v171.284c0 32.412-11.558 60.152-34.508 83.273-22.846 23.158-50.493 34.772-82.589 34.772-32.999 0-61.096-11.443-83.953-34.088-22.938-22.719-34.381-50.705-34.381-84.057v-472.933c0-97.273 34.381-180.379 103.178-249.354 68.849-69.113 151.846-103.569 248.892-103.569h232.886c32.326 0 60.092 11.61 83.176 34.761 23.105 23.042 34.634 50.861 34.634 83.239 0 32.39-11.529 60.145-34.634 83.291-23.099 23.099-50.89 34.75-83.262 34.75z" />
<glyph unicode="&#xe90a;" glyph-name="googleplus-logo" data-tags="google-plus" horiz-adv-x="1456" d="M515.7 351.244h223.313c-39.199-110.823-145.361-190.282-269.652-189.366-150.81 1.115-275.507 121.757-281.364 272.457-6.277 161.539 123.322 294.959 283.491 294.959 73.234 0 140.065-27.904 190.452-73.628 11.935-10.832 30.1-10.901 41.838 0.147l82.020 77.195c12.826 12.074 12.874 32.465 0.085 44.579-79.904 75.701-187.090 122.884-305.292 125.191-252.11 4.921-464.614-201.781-466.373-453.936-1.771-254.047 203.634-460.542 457.269-460.542 243.916 0 443.175 190.984 456.521 431.564 0.357 3.017 0.589 104.955 0.589 104.955h-412.901c-16.924 0-30.643-13.718-30.643-30.643v-112.287c0-16.924 13.72-30.643 30.643-30.643zM1306.99 514.619v109.711c0 14.832-12.021 26.853-26.853 26.853h-92.34c-14.832 0-26.853-12.021-26.853-26.853v-109.711h-109.711c-14.832 0-26.853-12.021-26.853-26.853v-92.34c0-14.832 12.021-26.853 26.853-26.853h109.711v-109.711c0-14.832 12.021-26.853 26.853-26.853h92.34c14.832 0 26.853 12.021 26.853 26.853v109.711h109.711c14.832 0 26.853 12.021 26.853 26.853v92.34c0 14.832-12.021 26.853-26.853 26.853h-109.711z" />
<glyph unicode="&#xe90b;" glyph-name="linkedin-logo" data-tags="linkedin-logo" d="M1024 337.332v-378.579h-219.476v353.224c0 88.733-31.745 149.29-111.188 149.29-60.645 0-96.735-40.811-112.612-80.288-5.79-14.113-7.28-33.757-7.28-53.512v-368.714h-219.55c0 0 2.957 598.246 0 660.229h219.529v-93.585c-0.445-0.7-1.024-1.455-1.443-2.133h1.443v2.133c29.167 44.922 81.255 109.095 197.845 109.095 144.447 0.002 252.733-94.363 252.733-297.16zM124.235 937.245c-75.108 0-124.235-49.265-124.235-114.050 0-63.373 47.705-114.133 121.321-114.133h1.467c76.562 0 124.177 50.75 124.177 114.133-1.443 64.785-47.615 114.050-122.73 114.050zM13.039-41.247h219.467v660.229h-219.467v-660.229z" />
<glyph unicode="&#xe90c;" glyph-name="star" data-tags="favourites-filled-star-symbol" d="M979.438 602.76l-281.99 26.665c-17.776 1.616-33.137 12.928-40.401 29.897l-101.002 244.829c-16.16 40.401-73.538 40.401-89.698 0l-100.194-244.829c-6.464-16.968-22.624-28.281-40.401-29.897l-281.998-26.665c-42.017-4.040-58.985-56.561-27.473-84.842l212.508-186.652c13.736-12.12 19.392-29.897 15.352-47.673l-63.833-261.789c-9.696-41.217 34.745-75.146 71.914-53.337l235.133 138.179c15.352 8.888 33.937 8.888 49.289 0l235.141-138.179c37.169-21.808 81.61 11.312 71.905 53.337l-63.025 261.789c-4.040 17.776 1.616 35.553 15.352 47.673l212.508 186.652c30.705 28.281 12.928 80.802-29.089 84.842z" />
<glyph unicode="&#xe90d;" glyph-name="search" data-tags="search" d="M991.284 27.298l-243.714 253.474c62.663 74.491 96.997 168.216 96.997 265.788 0 227.967-185.473 413.44-413.44 413.44s-413.44-185.473-413.44-413.44 185.473-413.44 413.44-413.44c85.582 0 167.137 25.813 236.865 74.815l245.565-255.398c10.264-10.66 24.069-16.538 38.863-16.538 14.003 0 27.287 5.339 37.371 15.046 21.427 20.618 22.11 54.808 1.492 76.253zM431.128 852.146c168.504 0 305.586-137.082 305.586-305.586s-137.082-305.586-305.586-305.586-305.586 137.082-305.586 305.586 137.082 305.586 305.586 305.586z" />
<glyph unicode="&#xe90e;" glyph-name="plus" data-tags="plus-black-symbol" d="M1003.637 567.27c-13.58 13.577-30.073 20.363-49.461 20.363h-302.548v302.556c0 19.388-6.791 35.876-20.363 49.453-13.575 13.567-30.051 20.358-49.466 20.358h-139.623c-19.39 0-35.876-6.783-49.453-20.361s-20.363-30.066-20.363-49.453v-302.556h-302.546c-19.388 0-35.876-6.786-49.453-20.363s-20.361-30.051-20.361-49.451v-139.641c0-19.405 6.781-35.881 20.358-49.446 13.577-13.582 30.066-20.363 49.453-20.363h302.546v-302.561c0-19.388 6.786-35.889 20.363-49.461 13.577-13.564 30.063-20.345 49.453-20.345h139.633c19.403 0 35.881 6.781 49.461 20.345 13.582 13.58 20.363 30.073 20.363 49.461v302.561h302.543c19.405 0 35.889 6.781 49.461 20.363 13.575 13.564 20.363 30.040 20.363 49.446v139.641c-0.005 19.4-6.778 35.884-20.361 49.453z" />
<glyph unicode="&#xe90f;" glyph-name="remove" data-tags="remove-symbol" d="M463.056 451.424l-453.248-453.248c-12.592-12.592-12.592-32.992 0-45.584 6.288-6.304 14.544-9.44 22.784-9.44 8.256 0 16.496 3.136 22.784 9.44l456.656 456.656 456.656-456.656c6.304-6.304 14.544-9.44 22.784-9.44s16.496 3.136 22.784 9.44c12.592 12.592 12.592 32.992 0 45.584l-453.232 453.248 453.536 453.568c12.592 12.592 12.592 32.992 0 45.584-12.592 12.576-32.992 12.576-45.568 0l-456.944-456.976-456.992 456.96c-12.592 12.576-32.976 12.576-45.568 0-12.592-12.592-12.592-32.992 0-45.584l453.568-453.552z" />
<glyph unicode="&#xe910;" glyph-name="three" data-tags="three" d="M59.368 758.119h905.265c32.805 0 59.368 27.053 59.368 60.515 0 33.379-26.563 60.529-59.368 60.529h-905.265c-32.805 0-59.368-27.151-59.368-60.529 0-33.476 26.563-60.515 59.368-60.515zM964.632 508.529h-905.265c-32.805 0-59.368-27.165-59.368-60.529 0-33.49 26.563-60.529 59.368-60.529h905.265c32.805 0 59.368 27.053 59.368 60.529 0 33.365-26.563 60.529-59.368 60.529zM964.632 137.895h-905.265c-32.805 0-59.368-27.165-59.368-60.529 0-33.49 26.563-60.529 59.368-60.529h905.265c32.805 0 59.368 27.081 59.368 60.529 0 33.365-26.563 60.529-59.368 60.529z" />
<glyph unicode="&#xe911;" glyph-name="arrow-down" data-tags="arrow-down" d="M511.999 156.146c-18.352 0-36.702 7.007-50.694 20.992l-440.297 440.301c-28.009 28.009-28.009 73.42 0 101.417 27.997 27.997 73.399 27.997 101.41 0l389.58-389.603 389.583 389.589c28.009 27.997 73.406 27.997 101.401 0 28.022-27.997 28.022-73.408 0-101.417l-440.29-440.301c-13.999-13.987-32.349-20.979-50.694-20.979z" />
<glyph unicode="&#xe912;" glyph-name="left-arrow" data-tags="left-arrow" d="M755.823-64l-512.017 512 512.017 512 24.37-24.37-487.63-487.63 487.63-487.63z" />
<glyph unicode="&#xe913;" glyph-name="people" data-tags="people" d="M537.599 371.201c63.999 46.933 102.4 123.733 102.4 204.8 0 140.799-115.201 256-256 256s-256-115.201-256-256c0-81.067 38.399-157.867 102.4-204.8-123.733-55.465-213.334-170.666-230.4-307.199h85.334c21.333 145.066 149.333 256 298.665 256s277.332-110.934 298.665-256h85.334c-17.066 136.534-106.667 251.733-230.4 307.199v0zM383.999 405.335c-93.868 0-170.666 76.8-170.666 170.666s76.8 170.666 170.666 170.666 170.666-76.8 170.666-170.666-76.798-170.666-170.666-170.666v0zM883.199 379.735c34.132 42.666 55.467 98.133 55.467 153.6 0 153.6-136.534 273.065-285.866 256 12.799-12.799 21.333-29.867 29.867-46.933 8.534-12.799 12.799-25.6 17.066-38.399 98.133-17.066 153.6-89.601 153.6-170.666 0-55.467-29.867-106.667-68.266-136.534-12.799-8.534-17.066-21.333-17.066-34.132 0-21.333 12.799-38.399 34.132-42.666 76.8-17.066 136.534-85.334 136.534-166.399h85.334c-0.002 93.862-55.469 183.461-140.801 226.129v0z" />
<glyph unicode="&#xe914;" glyph-name="travel" data-tags="travel" d="M924.791 702.957h-38.537c-5.004 14.138-18.456 24.281-34.305 24.281h-72.843c-15.85 0-29.301-10.141-34.305-24.281h-50.68v109.266c0 20.112-16.306 36.425-36.425 36.425h-291.384c-20.112 0-36.425-16.306-36.425-36.425v-109.266h-50.68c-5.004 14.138-18.456 24.281-34.305 24.281h-72.843c-15.85 0-29.301-10.141-34.305-24.281h-38.537c-20.112 0-36.425-16.304-36.425-36.423v-582.764c0-20.112 16.306-36.425 36.425-36.425h825.577c20.112 0 36.425 16.306 36.425 36.425v582.764c0 20.112-16.304 36.423-36.425 36.423zM402.734 775.807h218.532v-72.843h-218.532v72.843zM888.369 120.193h-752.738v267.101h267.103v-36.425c0-20.112 16.306-36.425 36.425-36.425h145.691c20.112 0 36.425 16.304 36.425 36.425v36.425h267.101v-267.101zM475.575 387.294v72.843h72.843v-72.843h-72.843zM888.369 460.144h-267.103v36.425c0 20.112-16.304 36.425-36.425 36.425h-145.691c-20.112 0-36.425-16.306-36.425-36.425v-36.425h-267.101v169.972h752.734v-169.972z" />
<glyph unicode="&#xe915;" glyph-name="right-arrow" data-tags="left-arrow" d="M268.177-64l512.017 512-512.017 512-24.37-24.37 487.63-487.63-487.63-487.63z" />
<glyph unicode="&#xe916;" glyph-name="quaver" data-tags="quaver" d="M854.166 914.135c-7.314 5.544-16.873 7.373-25.865 4.777l-412.925-118.452c-12.654-3.571-21.383-15.131-21.383-28.342v-531.495c-24.718 18.761-55.156 30.23-88.485 30.23-81.316 0-147.475-66.159-147.475-147.475 0-81.348 66.159-147.475 147.475-147.475s147.475 66.127 147.475 147.475v509.050l353.935 101.434v-375.232c-24.718 18.761-55.156 30.23-88.485 30.23-81.316 0-147.475-66.159-147.475-147.475 0-81.348 66.159-147.475 147.475-147.475s147.475 66.127 147.475 147.475v649.18c0.030 9.201-4.306 17.935-11.737 23.565zM305.535 34.984c-48.786 0-88.485 39.699-88.485 88.485 0 48.754 39.699 88.485 88.485 88.485s88.485-39.731 88.485-88.485c0-48.786-39.699-88.485-88.485-88.485zM718.465 152.964c-48.786 0-88.485 39.699-88.485 88.485 0 48.754 39.699 88.485 88.485 88.485s88.485-39.731 88.485-88.485c0-48.786-39.699-88.485-88.485-88.485zM806.945 795.302l-353.935-101.493v56.068l353.935 101.493v-56.068z" />
<glyph unicode="&#xe917;" glyph-name="folded-newspaper" data-tags="folded-newspaper" d="M851.69 702.771v113.229h-792.614v-622.771c0 0 0-113.229 113.229-113.229h707.69c0 0 84.924 1.756 84.924 113.229v509.538h-113.229zM172.31 136.614c-56.614 0-56.614 56.614-56.614 56.614v566.152h679.386v-566.152c0-26.070 8.038-44.134 19.136-56.614h-641.907zM172.31 646.152h566.152v-56.614h-566.152v56.614zM483.69 306.462h198.152v-56.614h-198.152v56.614zM483.69 419.69h254.771v-56.614h-254.771v56.614zM483.69 532.924h254.771v-56.614h-254.771v56.614zM172.31 532.924h254.771v-283.076h-254.771v283.076z" />
<glyph unicode="&#xe918;" glyph-name="next-track" data-tags="next-track-button" d="M253.222 185.4c-14.868 0-26.924 12.056-26.924 26.919v471.092c0 14.865 12.056 26.926 26.924 26.926l437.441-242.27c0 0 20.19-20.188 0-40.378-20.188-20.19-437.441-242.268-437.441-242.268zM707.731 681.426c0 16.113 13.063 29.176 29.176 29.176h31.613c16.113 0 29.176-13.063 29.176-29.176v-466.853c0-16.113-13.063-29.176-29.176-29.176h-31.613c-16.113 0-29.176 13.063-29.176 29.176v466.853z" />
<glyph unicode="&#xe919;" glyph-name="picture" data-tags="picture" d="M960.88 802.489c-15.405 15.405-33.913 23.104-55.556 23.104h-786.655c-21.634 0-40.145-7.7-55.562-23.104-15.407-15.409-23.104-33.92-23.104-55.556v-597.856c0-21.641 7.7-40.154 23.104-55.562 15.413-15.407 33.928-23.107 55.562-23.107h786.668c21.63 0 40.143 7.704 55.55 23.107 15.405 15.405 23.112 33.918 23.112 55.562v597.856c0 21.636-7.711 40.147-23.12 55.556zM921.051 149.075c0-4.269-1.547-7.945-4.661-11.068-3.117-3.098-6.806-4.653-11.068-4.653h-786.655c-4.26 0-7.949 1.555-11.062 4.653-3.111 3.123-4.67 6.801-4.67 11.068v597.863c0 4.261 1.553 7.941 4.67 11.062 3.115 3.104 6.805 4.663 11.062 4.663h786.668c4.256 0 7.945-1.559 11.057-4.663 3.1-3.121 4.661-6.801 4.661-11.062v-597.863zM260.27 510.938c26.224 0 48.512 9.175 66.869 27.532 18.351 18.357 27.532 40.643 27.532 66.859 0 26.226-9.182 48.512-27.532 66.871-18.357 18.35-40.647 27.53-66.869 27.53-26.22 0-48.506-9.18-66.863-27.53-18.35-18.357-27.53-40.643-27.53-66.871 0-26.219 9.175-48.508 27.53-66.859 18.357-18.351 40.643-27.532 66.863-27.532zM401.865 369.343l-78.667 78.657-157.33-157.328v-94.404h692.26v220.264l-204.532 204.537z" />
<glyph unicode="&#xe91a;" glyph-name="user" data-tags="user" d="M749.449 722.551c0-131.14-106.31-237.449-237.449-237.449s-237.449 106.31-237.449 237.449c0 131.14 106.31 237.449 237.449 237.449s237.449-106.31 237.449-237.449zM512 366.377c-237.691 0-430.377-192.686-430.377-430.377h860.754c0 237.691-192.686 430.377-430.377 430.377z" />
<glyph unicode="&#xe91b;" glyph-name="quotation" data-tags="quotation-marks-in-speech-bubble" d="M511.98 942.617c-282.764 0-511.98-202.362-511.98-452.039 0-126.596 59.102-240.885 154.050-322.965-20.82-120.283-155.168-169.035-145.937-202.163 113.489-46.954 340.827 56.425 396.333 83.239 34.726-6.554 70.651-10.19 107.535-10.19 282.764 0 512.020 202.362 512.020 452.079s-229.256 452.039-512.020 452.039zM475.695 471.757c0-122.92-54.387-191.893-161.562-204.96-0.24-0.040-0.4-0.040-0.639-0.040-1.159 0-2.438 0.44-3.277 1.239-1.079 0.919-1.718 2.318-1.718 3.756v62.459c0 1.838 0.999 3.517 2.558 4.356 48.872 26.654 73.288 68.613 74.527 128.155h-72.090c-2.717 0-4.995 2.238-4.995 4.995v157.167c0 2.757 2.278 4.995 4.995 4.995h157.206c2.717 0 4.995-2.238 4.995-4.995v-157.127zM754.024 471.757c0-121.042-48.153-182.342-161.163-204.92-0.32-0.040-0.639-0.080-0.959-0.080-1.159 0-2.278 0.4-3.197 1.119-1.159 0.919-1.798 2.398-1.798 3.876v62.459c0 1.838 0.999 3.517 2.558 4.356 48.872 26.654 73.288 68.613 74.527 128.155h-72.090c-2.717 0-4.995 2.238-4.995 4.995v157.167c0 2.757 2.278 4.995 4.995 4.995h157.127c2.797 0 4.995-2.238 4.995-4.995v-157.127z" />
<glyph unicode="&#xe91c;" glyph-name="telephone" data-tags="telephone" d="M1021.786 166.587c-2.896 8.727-21.323 21.583-55.268 38.538-9.196 5.344-22.299 12.606-39.254 21.82-16.97 9.213-32.373 17.704-46.182 25.463-13.837 7.756-26.8 15.271-38.912 22.533-1.936 1.454-7.996 5.691-18.177 12.736-10.192 7.025-18.786 12.24-25.829 15.64-7.028 3.38-13.941 5.082-20.73 5.082-9.695 0-21.805-6.913-36.345-20.722-14.54-13.827-27.877-28.845-39.992-45.102-12.117-16.249-24.968-31.268-38.53-45.087-13.582-13.824-24.742-20.73-33.458-20.73-4.376 0-9.832 1.22-16.371 3.627-6.536 2.422-11.509 4.498-14.922 6.172-3.383 1.709-9.188 5.092-17.436 10.199-8.263 5.092-12.859 7.881-13.827 8.368-66.42 36.857-123.385 79.039-170.904 126.539-47.504 47.527-89.692 104.487-126.539 170.915-0.484 0.971-3.278 5.579-8.365 13.816-5.095 8.246-8.49 14.056-10.187 17.459-1.696 3.39-3.757 8.363-6.177 14.907s-3.635 11.995-3.635 16.364c0 8.722 6.911 19.879 20.73 33.456 13.816 13.569 28.85 26.423 45.087 38.535 16.249 12.112 31.268 25.45 45.089 39.99 13.816 14.547 20.725 26.662 20.725 36.357 0 6.783-1.696 13.699-5.087 20.727-3.393 7.043-8.605 15.638-15.638 25.824-7.036 10.181-11.277 16.236-12.734 18.185-7.265 12.112-14.772 25.080-22.538 38.899-7.767 13.816-16.244 29.217-25.46 46.185-9.208 16.96-16.476 30.055-21.815 39.266-16.96 33.932-29.806 52.364-38.535 55.263-3.396 1.454-8.49 2.188-15.271 2.188-13.098 0-30.185-2.42-51.274-7.275-21.097-4.847-37.697-9.932-49.82-15.273-24.242-10.176-49.937-39.75-77.091-88.711-24.726-45.566-37.088-90.665-37.088-135.265 0-13.080 0.848-25.806 2.545-38.181 1.696-12.362 4.728-26.303 9.096-41.821 4.361-15.513 7.879-27.037 10.538-34.541 2.662-7.509 7.632-20.962 14.907-40.362 7.265-19.395 11.633-31.268 13.088-35.631 16.967-47.517 37.088-89.937 60.358-127.272 38.286-62.057 90.533-126.19 156.711-192.373 66.181-66.178 130.301-118.423 192.363-156.724 37.33-23.267 79.765-43.385 127.275-60.365 4.366-1.447 16.239-5.805 35.626-13.096 19.395-7.27 32.852-12.24 40.362-14.907 7.512-2.67 19.038-6.19 34.539-10.558 15.533-4.369 29.462-7.4 41.824-9.109 12.37-1.674 25.098-2.537 38.181-2.537 44.598 0 89.7 12.37 135.273 37.093 48.956 27.144 78.522 52.843 88.704 77.104 5.354 12.11 10.426 28.715 15.273 49.812 4.863 21.086 7.278 38.171 7.278 51.266 0.015 6.809-0.716 11.891-2.178 15.314z" />
<glyph unicode="&#xe91d;" glyph-name="clock" data-tags="clock" d="M512 960c-281.6 0-512-230.4-512-512s230.4-512 512-512 512 230.4 512 512-230.4 512-512 512zM512 38.4c-225.28 0-409.6 184.32-409.6 409.6s184.32 409.6 409.6 409.6 409.6-184.32 409.6-409.6-184.32-409.6-409.6-409.6zM537.6 704h-76.8v-307.2l266.24-163.84 40.96 66.56-230.4 138.24z" />
<glyph unicode="&#xe91e;" glyph-name="music-headphones" data-tags="music-5" d="M223.563 406.154v-350.685c0-20.905 16.893-37.787 37.787-37.787 20.859 0 37.787 16.882 37.787 37.787v350.685c0 20.866-16.929 37.787-37.787 37.787-20.894 0-37.787-16.904-37.787-37.787zM104.956 17.254h83.203v416.354c0.228 1.995 0.591 3.987 0.591 6.032 0 179.626 144.985 325.743 323.171 325.743 178.165 0 323.149-146.118 323.149-325.743 0-2.747 0.403-5.409 0.812-8.063v-414.323h83.214c57.915 0 104.906 48.601 104.906 108.566v217.124c0 49.449-32.029 91.11-75.756 104.219-4.023 238.628-198.14 431.583-436.308 431.583-238.232 0-432.378-192.973-436.361-431.676-43.666-13.127-75.578-54.751-75.578-104.162v-217.089c0-59.929 46.987-108.566 104.956-108.566zM724.938 406.154v-350.685c0-20.905 16.918-37.787 37.784-37.787s37.784 16.882 37.784 37.787v350.685c0 20.866-16.918 37.787-37.784 37.787-20.905 0-37.784-16.904-37.784-37.787z" />
<glyph unicode="&#xe91f;" glyph-name="music-cd" data-tags="music-cd" d="M662.167 119.009v367.463l216.42 35.090c-34.47 182.696-194.803 320.913-387.518 320.913-217.868 0-394.475-176.607-394.475-394.475 0-217.87 176.607-394.477 394.475-394.477 21.132 0 41.853 1.71 62.078 4.906 15.837 26.288 44.246 47.384 80.319 56.404 9.529 2.358 19.151 3.775 28.702 4.176zM563.545 810.281l-42.264-185.168h-42.266l-30.19 185.168c44.285 22.148 114.721 0 114.721 0zM491.068 301.548c-80.886 0-146.453 65.567-146.453 146.453s65.567 146.451 146.453 146.451c80.886 0 146.453-65.567 146.453-146.451 0-80.886-65.567-146.453-146.453-146.453zM491.068 559.665c-61.587 0-111.664-50.077-111.664-111.664 0-61.581 50.077-111.666 111.664-111.666 61.583 0 111.664 50.085 111.664 111.666 0 61.587-50.083 111.664-111.664 111.664zM491.068 368.237c-43.98 0-79.758 35.778-79.758 79.764 0 43.98 35.79 79.758 79.758 79.758 43.986 0 79.741-35.778 79.741-79.758 0-43.988-35.754-79.764-79.741-79.764zM541.588-9.625c1.911-10.59 6.109-20.448 12.17-29.304-20.542-2.63-41.438-4.14-62.676-4.14-270.784 0-491.082 220.298-491.082 491.070 0 270.77 220.298 491.068 491.068 491.068 240.357 0 440.81-173.646 482.836-402.047l-47.675-7.741c-38.292 205.444-218.792 361.484-435.161 361.484-244.144 0-442.765-198.623-442.765-442.765 0-244.144 198.623-442.767 442.765-442.767 16.35 0 32.478 0.956 48.373 2.689 0.142-5.826 0.778-11.685 2.147-17.549zM1024 510.544v-425.766c0-35.262-26.286-63.387-67.289-73.739-45.014-11.157-88.469 7.689-97.102 42.193-8.631 34.563 20.849 71.628 65.851 82.891 20.342 5.024 40.355 3.998 57.112-1.899v256.501l-230.178-42.065-1.061-319.106h-0.046c-0.202-30.226-27.455-59.885-66.653-69.589-44.457-11.191-91.063 9.978-96.061 41.652-8.549 34.174 20.59 70.862 65.166 82.029 20.059 4.988 39.659 3.984 56.132-1.782v377.73l314.128 50.951z" />
<glyph unicode="&#xe920;" glyph-name="music-cd-1" data-tags="music-4" d="M584.78 448.021c0-40.196-32.585-72.78-72.78-72.78s-72.78 32.585-72.78 72.78c0 40.196 32.585 72.78 72.78 72.78s72.78-32.585 72.78-72.78zM874.046 810.046c-96.683 96.704-225.271 149.954-362.046 149.954-136.755 0-265.342-53.271-362.046-149.954-199.636-199.636-199.636-524.457 0-724.092 96.704-96.683 225.271-149.954 362.046-149.954s265.363 53.25 362.046 149.954c199.636 199.636 199.636 524.457 0 724.092zM512.701 31.899l0.804 259.588c-40.567-0.392-81.277 14.828-112.233 45.784-61.149 61.149-61.128 160.286 0 221.435 0.454 0.454 0.969 0.825 1.423 1.279l-184.271 184.292c83.711 83.979 190.438 124.298 296.216 121.885l-0.804-261.692c39.494-0.454 78.782-15.653 108.892-45.764 60.674-60.674 61.046-158.781 1.299-220.012l184.931-184.952c-83.711-83.938-190.458-124.257-296.257-121.844z" />
<glyph unicode="&#xe921;" glyph-name="arrow-top" data-tags="arrow-top" d="M511.999 739.854c-18.352 0-36.702-7.007-50.694-20.992l-440.297-440.301c-28.009-28.009-28.009-73.42 0-101.417 27.997-27.997 73.399-27.997 101.41 0l389.58 389.603 389.583-389.589c28.009-27.997 73.406-27.997 101.401 0 28.022 27.997 28.022 73.408 0 101.417l-440.29 440.301c-13.999 13.987-32.349 20.979-50.694 20.979z" />
<glyph unicode="&#xe922;" glyph-name="like" data-tags="like" d="M933.248 624.896c-40 10.496-134.048 10.368-271.616 14.016 6.496 30.016 8 57.088 8 105.152 0 114.816-83.648 215.936-157.632 215.936-52.256 0-95.328-42.72-96-95.264-0.704-64.448-20.64-175.744-128-232.192-7.872-4.16-30.4-15.264-33.696-16.704l1.696-1.44c-16.8 14.496-40.096 25.6-64 25.6h-96c-52.928 0-96-43.072-96-96v-512c0-52.928 43.072-96 96-96h96c38.080 0 69.952 23.008 85.376 55.264 0.384-0.128 1.056-0.32 1.504-0.384 2.112-0.576 4.608-1.184 7.648-1.984 0.576-0.16 0.864-0.224 1.472-0.384 18.432-4.576 53.92-13.056 129.76-30.496 16.256-3.712 102.144-22.016 191.104-22.016h174.944c53.312 0 91.744 20.512 114.624 61.696 0.32 0.64 7.68 15.008 13.696 34.432 4.512 14.624 6.176 35.328 0.736 56.32 34.368 23.616 45.44 59.328 52.64 82.56 12.064 38.112 8.448 66.752 0.064 87.264 19.328 18.24 35.808 46.048 42.752 88.512 4.32 26.304-0.32 53.376-12.448 75.904 18.112 20.352 26.368 45.952 27.328 69.632l0.384 6.688c0.224 4.192 0.416 6.784 0.416 16 0 40.416-28 91.968-90.752 109.888zM224 32c0-17.696-14.304-32-32-32h-96c-17.696 0-32 14.304-32 32v512c0 17.696 14.304 32 32 32h96c17.696 0 32-14.304 32-32v-512zM959.264 494.88c-0.64-15.808-7.264-46.88-63.264-46.88-48 0-64 0-64 0-8.864 0-16-7.168-16-16s7.136-16 16-16c0 0 14.016 0 62.016 0s54.304-39.808 51.2-59.008c-3.968-23.872-15.168-68.992-69.216-68.992-53.984 0-76 0-76 0-8.864 0-16-7.136-16-16 0-8.8 7.136-16 16-16 0 0 38.016 0 63.008 0 54.016 0 49.248-41.184 41.504-65.76-10.208-32.288-16.448-62.24-84.512-62.24-23.008 0-52.192 0-52.192 0-8.864 0-16-7.136-16-16 0-8.8 7.136-16 16-16 0 0 22.176 0 50.176 0 35.008 0 36.64-33.12 32.992-44.992-4-12.992-8.736-22.624-8.928-23.072-9.664-17.44-25.248-27.936-58.24-27.936h-174.944c-87.872 0-175.040 19.936-177.28 20.448-132.928 30.624-139.936 32.992-148.288 35.36 0 0-27.072 4.576-27.072 28.192l-0.224 441.984c0 15.008 9.568 28.576 25.408 33.344 1.984 0.768 4.672 1.6 6.592 2.4 146.176 60.544 190.688 193.28 192 302.272 0.192 15.328 12 32 32 32 33.824 0 93.632-67.904 93.632-151.936 0-75.872-3.072-88.992-29.632-168.064 320 0 317.76-4.608 345.984-12 35.008-10.016 38.016-39.008 38.016-48.992 0-10.976-0.32-9.376-0.736-20.128zM144 128c-26.496 0-48-21.504-48-48s21.504-48 48-48 48 21.504 48 48-21.504 48-48 48zM144 64c-8.8 0-16 7.2-16 16s7.2 16 16 16 16-7.2 16-16-7.2-16-16-16z" />
<glyph unicode="&#xe923;" glyph-name="prev-track" data-tags="next-track-button" d="M770.778 185.4c14.868 0 26.924 12.056 26.924 26.919v471.092c0 14.865-12.056 26.926-26.924 26.926l-437.441-242.27c0 0-20.19-20.188 0-40.378 20.188-20.19 437.441-242.268 437.441-242.268zM316.269 681.426c0 16.113-13.063 29.176-29.176 29.176h-31.613c-16.113 0-29.176-13.063-29.176-29.176v-466.853c0-16.113 13.063-29.176 29.176-29.176h31.613c16.113 0 29.176 13.063 29.176 29.176v466.853z" />
<glyph unicode="&#xe924;" glyph-name="music-equalizer" data-tags="music-3" d="M256 178.514h-215.585c-22.31 0-40.415-18.083-40.415-40.415v-107.781c0-22.31 18.105-40.394 40.415-40.394h215.585c22.31 0 40.415 18.105 40.415 40.394v107.781c0 22.332-18.105 40.415-40.415 40.415zM256 421.049h-215.585c-22.31 0-40.415-18.105-40.415-40.394v-107.781c0-22.332 18.105-40.415 40.415-40.415h215.585c22.31 0 40.415 18.083 40.415 40.415v107.781c0 22.31-18.105 40.394-40.415 40.394zM256 663.585h-215.585c-22.31 0-40.415-18.083-40.415-40.415v-107.781c0-22.332 18.105-40.415 40.415-40.415h215.585c22.31 0 40.415 18.105 40.415 40.415v107.781c0 22.31-18.105 40.415-40.415 40.415zM619.781 178.514h-215.606c-22.31 0-40.415-18.083-40.415-40.415v-107.781c0-22.31 18.105-40.394 40.415-40.394h215.606c22.288 0 40.394 18.105 40.394 40.394v107.781c0.044 22.332-18.040 40.415-40.394 40.415zM619.781 421.049h-215.606c-22.31 0-40.415-18.105-40.415-40.394v-107.781c0-22.332 18.105-40.415 40.415-40.415h215.606c22.288 0 40.394 18.083 40.394 40.415v107.781c0.044 22.31-18.040 40.394-40.394 40.394zM983.585 178.514h-215.585c-22.288 0-40.415-18.083-40.415-40.415v-107.781c0-22.31 18.127-40.394 40.415-40.394h215.585c22.31 0 40.415 18.105 40.415 40.394v107.781c0 22.332-18.105 40.415-40.415 40.415zM983.585 421.049h-215.585c-22.288 0-40.415-18.105-40.415-40.394v-107.781c0-22.332 18.127-40.415 40.415-40.415h215.585c22.31 0 40.415 18.083 40.415 40.415v107.781c0 22.31-18.105 40.394-40.415 40.394zM983.585 663.585h-215.585c-22.288 0-40.415-18.083-40.415-40.415v-107.781c0-22.332 18.127-40.415 40.415-40.415h215.585c22.31 0 40.415 18.105 40.415 40.415v107.781c0 22.31-18.105 40.415-40.415 40.415zM983.585 906.098h-215.585c-22.288 0-40.415-18.105-40.415-40.415v-107.781c0-22.332 18.127-40.415 40.415-40.415h215.585c22.31 0 40.415 18.083 40.415 40.415v107.781c0 22.332-18.105 40.415-40.415 40.415z" />
<glyph unicode="&#xe925;" glyph-name="mic-2" data-tags="tool" d="M827.085 566.152c-10.677 0-19.898-3.891-27.698-11.678-7.796-7.807-11.688-17.045-11.688-27.698v-78.784c0-75.916-26.984-140.846-80.927-194.788-53.954-53.942-118.882-80.914-194.775-80.914-75.904 0-140.835 26.971-194.777 80.914-53.954 53.942-80.925 118.873-80.925 194.788v78.772c0 10.653-3.905 19.877-11.689 27.698-7.796 7.785-17.034 11.678-27.698 11.678-10.675 0-19.913-3.893-27.696-11.678-7.798-7.807-11.689-17.045-11.689-27.698v-78.772c0-90.678 30.242-169.545 90.772-236.614 60.506-67.094 135.283-105.561 224.315-115.382v-81.249h-157.543c-10.675 0-19.913-3.871-27.698-11.678-7.796-7.785-11.689-17.021-11.689-27.696 0-10.653 3.893-19.877 11.689-27.698 7.785-7.787 17.021-11.678 27.698-11.678h393.859c10.666 0 19.901 3.891 27.698 11.678 7.785 7.807 11.688 17.045 11.688 27.698 0 10.675-3.903 19.9-11.688 27.696-7.796 7.807-17.032 11.678-27.698 11.678h-157.543v81.249c89.020 9.836 163.783 48.299 224.315 115.382 60.506 67.071 90.772 145.936 90.772 236.614v78.772c0 10.653-3.907 19.877-11.691 27.698-7.804 7.787-17.030 11.689-27.696 11.689zM419.177 576.597h-104.108v-72.229h104.108c15.905 0 28.791-12.886 28.791-28.791s-12.886-28.791-28.791-28.791h-104.050c0.288-53.632 19.521-99.605 57.789-137.875 38.557-38.58 84.933-57.834 139.083-57.834s100.516 19.254 139.084 57.834c38.256 38.269 57.501 84.243 57.787 137.875h-100.42c-15.907 0-28.793 12.886-28.793 28.791s12.886 28.791 28.793 28.791h100.478v72.229h-100.478c-15.907 0-28.793 12.888-28.793 28.791s12.886 28.791 28.793 28.791h100.478v76.768h-100.478c-15.907 0-28.793 12.888-28.793 28.791s12.886 28.791 28.793 28.791h100.237c-1.265 51.788-20.361 96.369-57.591 133.637-38.57 38.555-84.935 57.834-139.086 57.834-54.161 0-100.525-19.279-139.083-57.834-37.244-37.266-56.327-81.847-57.593-133.637h103.866c15.905 0 28.791-12.886 28.791-28.791s-12.886-28.791-28.791-28.791h-104.108v-76.768h104.108c15.905 0 28.791-12.886 28.791-28.791s-12.909-28.791-28.813-28.791z" />
<glyph unicode="&#xe926;" glyph-name="music-equalizer-1" data-tags="music" d="M56.892 334.247c-31.405 0-56.892-25.471-56.892-56.892v-113.785c0-31.413 25.488-56.917 56.892-56.917s56.892 25.504 56.892 56.917v113.785c0 31.421-25.496 56.892-56.892 56.892zM284.446 448.024c-31.405 0-56.884-25.471-56.884-56.884v-227.562c0-31.413 25.488-56.884 56.884-56.884s56.892 25.471 56.892 56.884v227.562c0 31.413-25.488 56.884-56.892 56.884zM512 561.801c-31.405 0-56.884-25.488-56.884-56.892v-341.339c0-31.413 25.488-56.884 56.884-56.884 31.389 0 56.892 25.471 56.892 56.884v341.347c0 31.405-25.504 56.884-56.892 56.884zM739.554 675.578c-31.381 0-56.884-25.488-56.884-56.884v-455.116c0-31.413 25.504-56.917 56.884-56.917 31.389 0 56.892 25.504 56.892 56.917v455.116c0 31.405-25.496 56.884-56.892 56.884zM967.116 789.339c-31.389 0-56.892-25.463-56.892-56.86v-568.892c0-31.413 25.504-56.917 56.892-56.917s56.884 25.504 56.884 56.917v568.884c0 31.405-25.488 56.868-56.884 56.868z" />
<glyph unicode="&#xe927;" glyph-name="play-circle" data-tags="music-2" d="M512.001 960c-282.77 0-512.001-229.231-512.001-512.001 0-282.768 229.231-511.999 512.001-511.999 282.768 0 512.001 229.231 512.001 511.999-0.002 282.77-229.233 512.001-512.001 512.001zM512.001 32c-229.751 0-416.001 186.25-416.001 415.999 0 229.751 186.25 416.001 416.001 416.001 229.749 0 416.001-186.25 416.001-416.001-0.002-229.749-186.252-415.999-416.001-415.999zM384 672l384-224.001-384-223.999v448z" />
<glyph unicode="&#xe928;" glyph-name="play" data-tags="play" d="M248.201 886.889c-82.785 47.489-149.904 8.587-149.904-86.823v-704.064c0-95.502 67.119-134.355 149.904-86.909l615.389 352.921c82.817 47.507 82.817 124.472 0 171.961l-615.389 352.915z" />
<glyph unicode="&#xe929;" glyph-name="sound" data-tags="sound" d="M512.308 128.797c0-18.039-10.423-34.428-26.734-42.077-6.307-2.983-13.064-4.425-19.778-4.425-10.632 0-21.165 3.654-29.673 10.709l-254.222 210.66h-135.399c-25.678-0.022-46.501 20.813-46.501 46.49v185.268c0 25.689 20.824 46.512 46.501 46.512h135.41l254.222 210.66c13.89 11.513 33.151 13.967 49.451 6.263 16.3-7.649 26.734-24.049 26.734-42.077l-0.011-627.984zM691.017 201.46c-1.134-0.077-2.223-0.121-3.346-0.121-12.283 0-24.126 4.854-32.876 13.615l-6.219 6.241c-16.311 16.278-18.226 42.066-4.491 60.578 34.824 46.953 53.204 102.611 53.204 161 0 62.802-20.868 121.707-60.358 170.355-15.035 18.491-13.648 45.346 3.203 62.185l6.208 6.219c9.289 9.289 21.737 14.352 35.209 13.549 13.119-0.66 25.369-6.835 33.69-17.005 54.778-67.028 83.714-148.408 83.714-235.314 0-80.94-25.59-157.984-74.017-222.767-8.090-10.797-20.461-17.577-33.921-18.535zM883.274 57.751c-8.409-9.939-20.571-15.904-33.591-16.454-0.638-0.022-1.288-0.044-1.948-0.044-12.316 0-24.137 4.865-32.887 13.615l-6.108 6.108c-17.071 17.060-18.226 44.344-2.708 62.813 74.997 89.195 116.314 202.471 116.314 318.983 0 121.19-44.234 237.856-124.525 328.504-16.278 18.402-15.453 46.259 1.871 63.649l6.097 6.108c9.047 9.091 20.802 14.099 34.284 13.67 12.8-0.363 24.907-6.020 33.415-15.596 97.053-109.27 150.511-250.040 150.511-396.335 0.022-140.759-49.957-277.501-140.726-385.021z" />
<glyph unicode="&#xe92a;" glyph-name="social" data-tags="social" d="M511.998 447.573c89.761 0 159.575 93.097 159.575 189.47v30.192c0 96.369-69.813 164.748-159.575 164.748-89.765 0-159.578-68.376-159.578-164.748v-30.192c0-96.373 69.813-189.47 159.578-189.47zM192.291 416.404c25.666 0 95.901 33.299 95.901 102.394v51.199c0 69.098-50.666 102.397-95.901 102.397-43.733 0-95.897-33.299-95.897-102.397v-51.199c0-69.095 71.597-102.394 95.897-102.394zM766.887 288.384c-0.050 0.501-0.2 0.976-0.25 1.473-0.751 6.028-1.902 11.925-3.5 17.699 0 0.054 0 0.1-0.050 0.15-3.35 12.275-9.003 24.099-17.449 35.749v0.050c-13.852 19.172-34.747 38.727-68.698 57.796-17.949 10.080-25.851 14.699-36.946 14.699-17.649 0-33.049-13.723-58.994-37.547h-0.054l-23.599-21.697c-0.851-0.805-26.295-36.75-45.346-36.75s-44.498 35.949-45.349 36.75l-23.599 21.697h-0.050c-25.944 23.824-41.344 37.547-58.994 37.547-11.099 0-21.003-4.62-36.946-14.699-32.917-20.778-54.853-38.598-68.648-57.742l-0.054-0.025c-0.050-0.050-0.050-0.129-0.097-0.172-8.353-11.553-13.952-23.302-17.299-35.502-0.046-0.1-0.104-0.225-0.143-0.347-1.555-5.732-2.707-11.549-3.454-17.524-0.050-0.554-0.2-1.076-0.254-1.627-0.701-6.35-1.098-12.826-1.098-19.548 0-0.747-0.014-140.145 0-140.796 0-45.496 17.148-63.996 63.996-63.996h383.982c47.251 0 63.996 17.502 63.996 63.996 0.014 0.651-0.004 140.048-0.004 140.796-0.004 6.719-0.404 13.194-1.101 19.569zM832.267 416.404c25.662 0 95.904 33.299 95.904 102.394v51.199c0 69.098-50.666 102.397-95.904 102.397-43.737 0-95.901-33.299-95.901-102.397v-51.199c0-69.095 71.597-102.394 95.901-102.394zM72.82 347.106c-59.551-33.9-72.799-87.949-72.799-123.097 0-0.547-0.050-63.499 0-63.996 0-46.447 15.6-63.999 63.996-63.999h127.995c0 0 0 135.994 0 191.994l-31.998 31.998c-33.854 29.849-62.394 41.198-87.194 27.099zM192.012 288.009c0.704-0.608 0 15.196 0 0v0zM1023.979 224.009c0 35.152-13.251 89.2-72.799 123.097-24.8 14.099-53.341 2.75-87.194-27.103l-31.998-31.998c0-55.997 0-191.994 0-191.994h127.995c48.395 0 63.996 17.553 63.996 63.999 0.050 0.501 0 63.449 0 63.999zM831.984 288.009c0 15.196-0.701-0.608 0 0v0z" />
<glyph unicode="&#xe92b;" glyph-name="note" data-tags="music-1" d="M335.554 780.643v-514.698c-27.042 16.571-58.734 26.296-92.771 26.296-98.359 0-178.142-79.762-178.142-178.099 0-98.38 79.762-178.163 178.142-178.163 98.316 0 178.056 79.698 178.078 178.12v0 479.957l453.192 130.285v-304.715c-27.064 16.571-58.734 26.296-92.792 26.296-98.38 0-178.163-79.74-178.163-178.014 0-98.38 79.74-178.163 178.163-178.163 92.664 0 168.779 70.89 177.246 161.4h0.853v708.856l-623.805-179.357z" />
<glyph unicode="&#xe92c;" glyph-name="square" data-tags="square" d="M897.452 872h-770.914c-21.302 0-38.548-17.266-38.548-38.548v-770.914c0-21.28 17.246-38.548 38.548-38.548h770.914c21.302 0 38.548 17.266 38.548 38.548v770.914c0 21.28-17.246 38.548-38.548 38.548zM352.964 428.731c21.302 0 38.548 17.266 38.548 38.548v327.634h50.676v-327.634c0-21.28 17.246-38.548 38.548-38.548h5.599v-327.634h-141.361v327.634h7.989zM537.695 428.731h5.599c21.302 0 38.548 17.266 38.548 38.548v327.634h50.676v-327.634c0-21.28 17.266-38.548 38.548-38.548h7.969v-327.634h-141.33v327.634zM165.086 794.914h86.731v-327.634c0-21.28 17.246-38.548 38.548-38.548h3.208v-327.634h-128.488v693.817zM858.914 101.086h-128.488v327.634h3.208c21.302 0 38.548 17.266 38.548 38.548v327.634h86.731v-693.817z" />
<glyph unicode="&#xe92d;" glyph-name="mic-3" data-tags="microphone" d="M292.483 960c-114.449 0-207.225-92.776-207.225-207.169 0-114.412 92.794-207.15 207.225-207.15 114.393 0 207.15 92.757 207.15 207.15s-92.757 207.169-207.15 207.169zM383.077 502.184l374.646-319.119 94.361 97.103-319.156 369.088c-47.152-88.784-149.851-147.072-149.851-147.072zM908.954 206.661l-36.782 50.64-86.714-90.892 49.95-33.928zM927.681 176.817l-67.259-65.917 32.417-5.745c3.73-19.137 10.016-67.446-13.243-99.043-15.108-20.499-41.202-31.336-77.555-32.212-152.481-3.786-202.151 7.424-285.526 97.588-96.17 104.004-266.128 82.685-273.309 81.715-10.221-1.362-17.402-10.744-16.022-20.946 1.362-10.221 10.688-17.421 20.946-16.022 1.604 0.187 157.871 19.846 241.004-70.057 86.266-93.316 148.191-110.197 267.378-110.197 14.567 0 30.011 0.261 46.444 0.616 48.495 1.194 84.363 17.123 106.671 47.376 27.139 36.819 26.113 85.11 22.215 114.225l6.901-1.194-11.061 79.812z" />
<glyph unicode="&#xe92e;" glyph-name="big-speech-balloon" data-tags="big-speech-balloon" d="M895.23 960h-766.459c-68.638 0-124.481-55.843-124.481-124.485v-502.782c0-68.64 55.843-124.485 124.485-124.485h419.745v-241.87c0-12.683 7.881-24.029 19.762-28.463 3.464-1.292 7.053-1.914 10.606-1.914 8.645 0 17.082 3.693 22.968 10.488l226.752 261.759h66.619c68.64 0 124.483 55.843 124.483 124.485v502.782c0.003 68.641-55.84 124.485-124.48 124.485zM958.959 332.731c0-35.139-28.587-63.731-63.729-63.731 0 0-78.594-0.020-79.055 0-8.978 0.42-18.057-3.164-24.4-10.488l-182.498-210.678v190.785c0 16.776-13.601 30.377-30.377 30.377h-450.128c-35.141 0-63.731 28.592-63.731 63.731v502.787c0.003 35.139 28.59 63.731 63.731 63.731h766.456c35.141 0 63.729-28.592 63.729-63.731v-502.782h0.003zM852.145 759.632h-680.286c-16.776 0-30.377-13.601-30.377-30.377s13.601-30.377 30.377-30.377h680.286c16.776 0 30.377 13.601 30.377 30.377s-13.598 30.377-30.377 30.377zM852.145 614.502h-680.286c-16.776 0-30.377-13.601-30.377-30.377s13.601-30.377 30.377-30.377h680.286c16.776 0 30.377 13.601 30.377 30.377s-13.598 30.377-30.377 30.377zM493.861 469.375h-322.001c-16.776 0-30.377-13.601-30.377-30.377s13.601-30.377 30.377-30.377h322.004c16.776 0 30.377 13.601 30.377 30.377-0.003 16.774-13.601 30.377-30.38 30.377z" />
<glyph unicode="&#xe92f;" glyph-name="sky" data-tags="sky" d="M1021.616 565.79c-15.701 49.105-102.12 60.325-193.625 72.435-50.154 6.579-107.142 14.017-124.337 26.762-17.322 12.65-41.477 64.679-62.836 110.67-38.839 83.622-75.613 162.509-127.039 162.636l-0.954 0.159c-50.981-0.858-88.136-78.791-127.642-161.524-21.772-45.736-46.531-97.575-63.789-110.13-17.449-12.427-74.437-19.42-124.75-25.522-91.409-11.124-177.956-21.549-194.102-70.4s47.008-108.89 113.944-172.33c36.742-34.898 78.346-74.437 84.894-94.778s-4.545-76.789-14.239-126.403c-17.735-90.392-34.485-175.985 6.961-206.593 9.916-7.088 22.376-10.679 37.091-10.361 42.304 0.667 103.169 33.595 162 65.506 44.084 24.092 94.079 51.267 116.328 51.521 21.517 0 71.672-27.938 115.914-52.57 60.166-33.404 122.43-67.985 164.797-67.286 13.222 0.191 24.505 3.592 33.722 10.234 41.7 30.035 25.808 115.596 9.058 206.338-9.217 49.709-19.547 106.284-13.031 126.625 6.738 20.246 48.819 59.276 85.911 93.92 67.54 62.836 131.298 121.985 115.724 171.090z" />
<glyph unicode="&#xe930;" glyph-name="sound-on" data-tags="sound-on" d="M863.936 511.904h0.064c0.064-8.768 7.2-15.872 16-15.872s16 7.136 16 15.968c0 0.096-0.064 0.16-0.064 0.256-0.192 176.288-142.88 319.136-319.136 319.552-0.224 0.064-0.48 0.192-0.8 0.192-8.864 0-16-7.168-16-16 0-8.8 7.136-15.968 15.936-16v-0.128c158.816 0.032 288-129.184 288-287.968zM291.872 931.904c-18.336 18.368-42.912 28.096-67.904 28.096-12.352 0-24.8-2.368-36.672-7.296-35.904-14.848-59.296-49.856-59.296-88.704l-0.032-440.224-99.84-99.904c-37.504-37.44-37.504-98.24 0-135.744l224-224c18.752-18.752 43.296-28.128 67.872-28.128s49.12 9.376 67.872 28.128l99.872 99.872h440.192c38.88 0 73.888 23.36 88.672 59.264 14.88 35.872 6.688 77.184-20.8 104.64l-703.936 704zM442.496 109.248l-99.872-99.872c-8.16-8.128-17.696-9.376-22.624-9.376s-14.464 1.248-22.624 9.376l-224 224c-8.16 8.192-9.376 17.696-9.376 22.624s1.216 14.496 9.376 22.624l99.84 99.872c0.288 0.32 0.384 0.672 0.672 0.992l269.6-269.632c-0.288-0.224-0.704-0.288-0.992-0.608zM487.744 128c-4.96 0-9.568-1.76-14.304-2.816l-284.32 284.32c1.088 4.736 2.848 9.344 2.848 14.272l0.032 385.472 681.184-681.248h-385.44zM957.504 147.744c-4.928-12-16.576-19.744-29.568-19.744h-9.504l-726.432 726.496v9.504c0 12.992 7.744 24.608 19.744 29.568 3.936 1.632 8.032 2.432 12.224 2.432 8.576 0 16.608-3.328 22.624-9.344l703.968-704.032c9.184-9.184 11.936-22.88 6.944-34.88zM575.936 896v-0.128c211.744 0 384-172.256 384-384h0.064c0.064-17.6 14.368-31.872 32-31.872 17.696 0 32 14.304 32 32 0 0.096-0.064 0.16-0.064 0.256-0.192 246.976-200.192 447.136-447.136 447.584-0.224 0.032-0.48 0.16-0.8 0.16-17.696 0-32-14.304-32-32 0-17.632 14.304-31.968 31.936-32z" />
<glyph unicode="&#xe931;" glyph-name="bulb" data-tags="small-light-bulb" d="M512 960c-194.432 0-352-157.568-352-352 0-128.992 118.016-265.696 160.992-385.76 64.096-179.040 56.992-286.24 191.008-286.24 136 0 126.88 106.688 191.008 285.504 43.104 120.32 160.992 258.496 160.992 386.496 0 194.432-157.632 352-352 352zM594.944 90.368l-158.656-19.808c-5.664 16.384-11.744 35.552-19.136 60.576-0.096 0.32-0.224 0.672-0.288 0.992l198.016 24.736c-2.816-9.44-5.824-19.36-8.448-28.256-4.192-14.368-7.936-26.848-11.488-38.24zM407.552 162.944c-5.824 19.264-12.384 39.552-19.68 61.056h248.512c-3.936-11.488-7.872-23.008-11.264-33.888l-217.568-27.168zM512 0c-32.416 0-47.328 3.744-63.904 40l135.616 16.992c-19.648-52.928-33.952-56.992-71.712-56.992zM661.504 288h-298.656c-15.936 34.56-35.072 69.12-53.952 102.944-41.76 74.72-84.896 152-84.896 217.056 0 158.816 129.184 288 288 288s288-129.184 288-288c0-64.576-43.2-142.272-84.992-217.44-18.688-33.696-37.696-68.192-53.504-102.56zM512 800c-105.888 0-192-86.112-192-192 0-8.832 7.168-16 16-16s16 7.168 16 16c0 88.224 71.776 160 160 160 8.832 0 16 7.168 16 16s-7.2 16-16 16z" />
<glyph unicode="&#xe932;" glyph-name="mail" data-tags="mail" horiz-adv-x="1152" d="M1129.908 772.707v76.4h-1107.82v-802.213h1107.82v725.812zM98.491 772.707h955.014v-49.126l-458.408-294.681-496.607 297.961v45.844zM780.676 437.993l272.828 181.913v-424.486l-272.828 242.573zM98.491 619.901l282.15-173.661-282.15-250.823v424.486zM451.389 402.695l143.712-88.396 117.047 78.005 298.958-269.009h-870.132l310.418 279.399z" />
<glyph unicode="&#xe933;" glyph-name="facebook-logo-lined" data-tags="facebook-social-network-logo" d="M820.806 866.172c0 55.023-38.226 93.828-93.25 93.828h-1.159c-6.95 0-13.9 0-20.272 0-8.688 0-17.376 0-26.642 0s-17.954 0-27.222 0c-20.272 0-36.489 0-51.548-0.579-66.027-2.316-125.104-24.904-171.44-64.868-46.914-40.542-77.031-96.725-86.878-162.171-4.634-31.276-5.213-61.393-5.213-90.353-12.163 0-24.904 0-37.067 0-12.741 0-46.336 0-71.818-26.063-25.485-25.485-25.485-59.077-25.485-71.818 0-41.123 0-83.403 0-124.526 0-14.479 0-47.493 26.642-73.556 25.485-24.904 59.077-24.904 72.977-24.904 11.584 0 23.747 0 35.33 0v-42.284c0-81.087-0.579-162.752-0.579-243.837 0-15.638-0.579-47.493 24.904-72.977 25.485-26.063 57.339-26.063 72.977-26.063 16.217 0 33.014 0 49.23 0h69.502c25.485 0 56.761 0 82.244 24.904 26.063 25.485 26.063 57.339 26.063 82.244v276.852c0 0 3.475 0 5.213 0 17.376 0 34.751 0 52.127 0 58.498 0 95.566 37.067 95.566 96.144 0 41.701 0 85.14 0 128.001 0 12.741 0 45.755-26.063 71.24-25.485 24.904-57.918 25.485-70.661 25.485-10.425 0-21.429 1.738-31.855 1.738-7.529 0-15.638 1.159-23.167 1.159h-0.579c0 0 0 3.475 0 5.791 9.847 0 19.692-0.579 30.117-0.579s21.429-0.579 32.435 0c57.918 1.159 94.407 37.067 94.987 93.828 0 30.117 0 60.236 0 89.774 1.161 11.58 1.161 22.586 0.583 33.59zM751.304 743.964c0-19.692-5.791-24.904-26.642-25.485-27.222-0.579-53.864 0-81.087-1.159-34.173-1.159-48.073-15.638-49.23-49.811-1.159-31.855 0-64.29 0-99.041 10.425 0 20.851 0 31.276 0 5.213 0 10.425 0 15.638 0 0 0 0 0 0.579 0 15.060 0 30.698 1.738 45.755 1.738 10.425 0 20.851 0.579 31.276 0.579 22.588 0 27.801-4.634 27.801-27.222 0-42.28 0-85.14 0-127.42 0-20.851-5.791-26.642-26.642-26.642-17.376 0-34.173 0-51.548 0-24.326 0-51.548 0-74.715 0 0-8.109 0-15.060 0-22.010 0-108.307 0-217.195 0-325.502 0-37.067-1.159-37.648-38.805-37.648-23.167 0-46.336 0-69.502 0-16.217 0-33.014 0-49.23 0-24.904 0-28.379 4.054-28.379 29.538 0 110.625 0.579 221.829 0.579 332.452 0 6.95 0 13.9 0 23.167-23.167 0-43.439 0-63.711 0-13.9 0-27.801 0-41.123 0-24.904 0-30.117 4.634-30.117 28.96 0 41.123 0 82.824 0 123.945 0 23.747 5.213 28.96 28.379 28.96 13.9 0 27.222 0 41.123 0 20.851 0 41.701 0 63.131 0 0.579 8.109 0.579 15.060 1.159 22.010 1.159 42.28-1.159 85.719 5.213 127.42 15.060 100.2 90.353 164.489 191.71 167.965 16.217 0.579 33.014 0.579 49.23 0.579 17.954 0 35.91-1.159 53.864-1.159 6.95 0 14.479-1.159 21.429-1.159h0.579c16.217 0 23.747-6.95 23.747-23.167-1.157-39.96-1.157-79.345-1.736-119.887z" />
<glyph unicode="&#xe934;" glyph-name="twitter-logo-lined" data-tags="twitter-bird-logo" d="M1000.331 773.611c2.309 6.928 3.464 14.432 3.464 21.939 0 37.527-30.020 68.702-67.547 69.279-0.577 0-1.155 0-1.732 0-1.155 0-2.887 0-4.041 0-10.392-0.577-20.207-3.464-28.867-8.083-2.887-1.155-5.196-2.887-7.505-4.041-1.155-0.577-2.309-1.155-3.464-1.732-17.896-6.928-36.371-13.856-55.423-20.784-31.752 23.092-69.279 40.412-113.734 50.227-5.196 1.155-10.392 2.887-15.588 2.887h-49.072c-5.773 0-12.124-2.309-17.896-3.464-38.68-10.392-79.094-24.824-116.042-55.423-50.227-42.144-80.826-95.835-90.639-157.61-101.031 21.36-184.745 70.434-253.445 152.99-13.279 15.588-32.331 23.092-53.115 23.092v0c-20.207 0-39.835-8.083-53.115-23.671-38.103-45.608-52.536-105.65-40.412-170.889 3.464-17.896 8.66-35.795 15.588-53.691-9.237-10.392-15.011-23.092-16.743-36.948-8.083-65.815 15.588-127.589 66.392-178.97-2.309-9.815-2.887-19.628-0.577-29.444 8.66-45.031 31.752-83.711 66.97-113.734-21.36-4.619-44.455-7.505-68.702-7.505-6.928 0-13.856 0-20.784 0.577-1.732 0-3.464 0-5.196 0-30.020 0-57.155-19.628-65.815-48.495-9.815-30.599 2.887-64.083 30.599-80.247 2.309-1.155 4.619-2.887 6.928-4.041 5.773-3.464 12.7-7.505 19.628-11.547 88.907-47.34 183.589-71.588 280.58-71.588 35.795 0 72.166 3.464 108.538 9.815 118.351 20.784 224.001 75.052 305.983 155.301s139.135 186.477 164.538 305.983c5.773 27.712 8.083 54.847 9.815 80.826 0.577 9.815 1.155 19.052 2.309 28.288 30.020 26.556 56 54.847 78.515 87.175 8.083 11.547 13.279 25.403 13.279 40.412-0.004 21.358-9.241 40.41-23.673 53.113zM876.206 636.206c-5.773-5.196-10.392-15.011-11.547-23.092-4.619-38.103-4.619-77.362-12.7-114.31-46.763-217.073-202.641-370.066-415.097-408.169-32.331-5.773-64.66-8.66-96.414-8.66-86.022 0-168.578 21.36-247.672 63.506-8.083 4.041-15.588 9.237-23.671 13.856 8.66-0.577 17.32-1.155 25.98-1.155 103.342 0 197.445 43.876 232.661 79.671-90.639 13.856-150.682 60.619-162.806 123.547 23.671 1.155 47.34 2.887 71.588 4.041-96.414 46.187-144.909 110.846-136.249 183.589 23.092-5.773 46.763-11.547 69.856-17.32-76.207 81.403-95.835 183.013-44.455 243.632 97.567-116.042 222.848-177.817 375.838-188.209-0.577 4.619-1.155 7.505-1.155 10.392-7.505 69.279 12.7 128.743 67.547 174.353 25.98 21.939 57.155 30.599 89.486 42.144 16.164 0 32.908 0 49.072 0 41.567-11.547 79.094-27.712 110.846-57.155 1.732-1.155 4.619-2.887 7.505-2.887 1.732 0 4.041 0 5.196 0.577 28.867 10.392 57.732 20.784 86.599 31.752 5.196 2.309 10.392 5.196 18.475 9.237-16.164-42.723-42.144-72.743-76.207-96.414 0.577-1.155 1.155-2.887 2.309-4.041 30.599 8.66 61.774 17.32 94.103 26.556-23.086-32.901-49.066-60.613-79.086-85.439z" />
<glyph unicode="&#xe935;" glyph-name="instagram-logo-lined" data-tags="instagram" d="M762.519-64h-501.038c-144.176 0-261.481 117.338-261.481 261.514v501.038c0 144.176 117.306 261.448 261.481 261.448h501.038c144.176 0 261.481-117.273 261.481-261.448v-501.038c0-144.176-117.306-261.514-261.481-261.514zM261.481 901.512c-111.931 0-202.96-91.029-202.96-202.927v-501.038c0-111.931 91.062-202.96 202.96-202.96h501.038c111.931 0 202.927 91.062 202.927 202.96v501.005c0 111.931-91.029 202.927-202.927 202.927h-501.038zM994.723 575.773h-360.653c-16.155 0-29.277 13.122-29.277 29.277s13.089 29.277 29.277 29.277h360.62c16.155 0 29.277-13.089 29.277-29.277 0.033-16.155-13.089-29.277-29.244-29.277zM382.347 575.773h-353.103c-16.155 0-29.244 13.122-29.244 29.244 0 16.155 13.089 29.277 29.244 29.277h353.103c16.155 0 29.277-13.089 29.277-29.277-0.033-16.122-13.122-29.244-29.277-29.244zM511.984 219.835c-125.812 0-228.215 102.337-228.215 228.182s102.37 228.215 228.215 228.215c125.812 0 228.182-102.337 228.182-228.215 0-125.845-102.337-228.182-228.182-228.182zM511.984 617.711c-93.567 0-169.727-76.16-169.727-169.727s76.16-169.661 169.727-169.661c93.567 0 169.661 76.094 169.661 169.661s-76.094 169.727-169.661 169.727zM842.602 651.372h-131.647c-16.155 0-29.277 13.089-29.277 29.244v131.68c0 16.155 13.122 29.244 29.277 29.244h131.647c16.155 0 29.244-13.089 29.244-29.244v-131.68c-0.033-16.188-13.089-29.244-29.244-29.244zM740.165 709.893h73.159v73.126h-73.159v-73.126z" />
<glyph unicode="&#xe936;" glyph-name="arrow-right" data-tags="arrow-right" d="M803.854 448.001c0 18.352-7.007 36.702-20.992 50.694l-440.301 440.297c-28.009 28.009-73.42 28.009-101.417 0-27.997-27.997-27.997-73.399 0-101.41l389.603-389.58-389.589-389.583c-27.997-28.009-27.997-73.406 0-101.401 27.997-28.022 73.408-28.022 101.417 0l440.301 440.29c13.987 13.999 20.979 32.349 20.979 50.694z" />
<glyph unicode="&#xe937;" glyph-name="arrow-left" data-tags="arrow-left" d="M220.146 448.001c0 18.352 7.007 36.702 20.992 50.694l440.301 440.297c28.009 28.009 73.42 28.009 101.417 0 27.997-27.997 27.997-73.399 0-101.41l-389.603-389.58 389.589-389.583c27.997-28.009 27.997-73.406 0-101.401-27.997-28.022-73.408-28.022-101.417 0l-440.301 440.29c-13.987 13.999-20.979 32.349-20.979 50.694z" />
<glyph unicode="&#xe938;" glyph-name="calendar" data-tags="calendar, date, schedule" d="M938.688 864h-138.688v64c0 17.696-14.304 32-32 32s-32-14.304-32-32v-64h-192v64c0 17.696-14.336 32-32 32s-32-14.304-32-32v-64h-192v64c0 17.696-14.336 32-32 32s-32-14.304-32-32v-64h-138.656c-47.136 0-85.344-38.176-85.344-85.312v-757.344c0-47.136 38.208-85.344 85.344-85.344h853.344c47.136 0 85.312 38.208 85.312 85.344v757.344c0 47.136-38.176 85.312-85.312 85.312zM960 21.344c0-11.776-9.568-21.344-21.312-21.344h-853.344c-11.776 0-21.344 9.568-21.344 21.344v757.344c0 11.744 9.568 21.312 21.344 21.312h138.656v-64c0-17.696 14.336-32 32-32s32 14.304 32 32v64h192v-64c0-17.696 14.336-32 32-32s32 14.304 32 32v64h192v-64c0-17.696 14.304-32 32-32s32 14.304 32 32v64h138.688c11.744 0 21.312-9.568 21.312-21.312v-757.344zM224 576h128v-96h-128zM224 416h128v-96h-128zM224 256h128v-96h-128zM448 256h128v-96h-128zM448 416h128v-96h-128zM448 576h128v-96h-128zM672 256h128v-96h-128zM672 416h128v-96h-128zM672 576h128v-96h-128z" />
<glyph unicode="&#xe939;" glyph-name="download" data-tags="download, store, save" d="M883.968 289.44l-30.656-162.304h-682.624l-30.656 162.304h-76.32v-257.984h896.576v257.984h-76.32zM864.64 577.728h-224.704v93.76h-255.808v-93.76h-222.56l349.248-365.184 353.824 365.184zM639.904 832.576h-255.808v-34.112h255.808v34.112zM639.904 768.864h-255.808v-65.216h255.808v65.216z" />
<glyph unicode="&#xe93a;" glyph-name="share" data-tags="share, out, external, outside" d="M256 320c0 0 58.824 192 384 192v-192l384 256-384 256v-192c-256 0-384-159.672-384-320zM704 192h-576v384h125.876c10.094 11.918 20.912 23.334 32.488 34.18 43.964 41.19 96.562 72.652 156.114 93.82h-442.478v-640h832v268.624l-128-85.334v-55.29z" />
<glyph unicode="&#xe93b;" glyph-name="bag" data-tags="bag (1)" d="M866.034 667.882c-2.381 15.876-15.876 26.989-31.752 26.989h-182.574v74.617c0 76.998-62.71 139.709-139.709 139.709s-139.709-62.71-139.709-139.709v-74.617h-182.574c-15.876 0-29.371-11.113-31.752-26.989l-106.369-642.977c-1.588-9.526 0.794-19.051 7.144-26.195s15.082-11.113 24.608-11.113h857.302c0 0 0 0 0.794 0 18.257 0 32.546 14.288 32.546 32.546 0 3.969-0.794 7.144-1.588 10.319l-106.369 637.42zM437.383 769.488c0 41.278 33.34 74.617 74.617 74.617s74.617-33.34 74.617-74.617v-74.617h-149.234v74.617zM121.451 51.895l96.050 577.885h154.791v-181.78c0-18.257 14.288-32.546 32.546-32.546s32.546 14.288 32.546 32.546v181.78h149.234v-181.78c0-18.257 14.288-32.546 32.546-32.546s32.546 14.288 32.546 32.546v181.78h154.791l96.050-577.885h-781.098z" />
</font>
</defs>
</svg>
