<svg width="56" height="54" viewBox="0 0 56 54" fill="none" xmlns="http://www.w3.org/2000/svg">
<path d="M32.4942 54C30.9671 53.3232 30.5079 52.1387 30.5399 50.5206C30.6253 46.248 30.5933 41.9754 30.5719 37.7028C30.5613 35.8203 29.5467 34.7627 27.9021 34.7945C26.3536 34.8262 25.4459 35.8732 25.3818 37.7028C25.3712 38.1152 25.3818 38.5277 25.3818 38.9402C25.3818 42.8003 25.4032 46.6604 25.3925 50.5206C25.3818 52.5511 24.41 53.7145 22.7975 53.651C21.281 53.5981 20.3412 52.4136 20.3412 50.5206C20.3412 45.476 20.3626 40.4313 20.3626 35.3867C20.3626 34.8791 20.3946 34.3397 20.2665 33.8532C19.9034 32.5418 18.9743 31.8861 17.5967 31.9707C16.2831 32.0554 15.4608 32.7745 15.29 34.0542C15.1618 35.0166 15.2473 36.0107 15.1939 36.9836C15.0977 38.6229 14.0085 39.7439 12.5988 39.7016C11.2425 39.6593 10.2387 38.5594 10.1746 36.9836C10.1319 36.1059 10.196 35.2387 10.1639 34.3609C10.0999 32.6899 9.1067 31.6006 7.67569 31.5689C6.10584 31.5371 5.102 32.5736 5.01656 34.3397C5.00588 34.5935 5.02724 34.8579 4.98452 35.1117C4.76026 36.4549 3.69234 37.3432 2.38947 37.2903C1.07593 37.2375 0.0614055 36.2962 0.0400471 34.9002C-0.013349 31.9707 -0.013349 29.0307 0.0400471 26.1012C0.0614055 24.6841 1.20408 23.6265 2.49627 23.6265C3.74574 23.6265 4.80298 24.5995 4.98452 25.9532C5.02724 26.3127 4.98453 26.6723 5.01656 27.0319C5.14471 28.4385 6.19128 29.3903 7.60093 29.3797C8.98923 29.3691 10.0892 28.4067 10.1426 27.0002C10.2173 25.308 10.1639 23.6053 10.1853 21.9027C10.2067 20.1365 11.2212 18.9309 12.6415 18.9097C14.1153 18.8886 15.1084 20.0202 15.1832 21.8075C15.2045 22.368 15.1832 22.9391 15.1939 23.5102C15.2259 25.5196 16.1763 26.6829 17.7782 26.6935C19.3908 26.704 20.384 25.5196 20.384 23.5419C20.3946 20.5067 20.3626 17.4714 20.4053 14.4362C20.4267 12.522 21.8684 11.2952 23.5023 11.7711C24.8265 12.1624 25.3818 13.1248 25.3712 14.4573C25.3605 16.9744 25.3605 19.502 25.3712 22.019C25.3818 24.2293 26.3536 25.4878 28.0196 25.4667C29.6642 25.4455 30.5719 24.2716 30.5719 22.093C30.5826 15.9697 30.5826 9.84632 30.5826 3.72297C30.5826 3.36339 30.5719 3.00382 30.5826 2.64424C30.668 1.03673 31.6185 0.0214629 33.0281 0.000311481C34.5232 -0.02084 35.5271 1.03673 35.5271 2.71827C35.5484 7.96384 35.5484 13.22 35.5591 18.4655C35.5591 18.7194 35.5378 18.9838 35.5591 19.2376C35.6873 20.6759 36.6804 21.6488 38.0687 21.6806C39.5318 21.7229 40.6424 20.7499 40.7065 19.227C40.7919 16.9109 40.7492 14.5948 40.7813 12.2787C40.8133 10.3963 41.8278 9.22235 43.3549 9.26465C44.818 9.30695 45.7685 10.4597 45.7791 12.2787C45.8005 15.6207 45.7791 18.9732 45.8112 22.3151C45.8325 24.2399 46.783 25.308 48.3849 25.2975C49.9867 25.2869 50.8838 24.2082 50.9265 22.2728C50.9372 21.9132 50.9158 21.5537 50.9586 21.1941C51.1401 19.7346 52.176 18.7722 53.5216 18.804C54.8992 18.8357 55.9137 19.7981 55.9458 21.2998C56.0098 24.0284 55.9885 26.7569 55.9885 29.4855C55.9885 30.9766 56.0205 32.4678 55.9778 33.959C55.9351 35.6723 54.9739 36.7087 53.4895 36.7193C51.9304 36.7404 50.9479 35.6617 50.9052 33.8744C50.8838 33.0495 50.9372 32.2246 50.8945 31.4102C50.8197 29.8344 49.8372 28.8826 48.3421 28.8932C46.8471 28.9038 45.8432 29.845 45.8325 31.442C45.8005 35.1963 45.8325 38.9507 45.8325 42.7157C45.8325 43.181 45.8539 43.6464 45.7791 44.1011C45.5442 45.4231 44.4229 46.3537 43.152 46.2586C41.7851 46.1528 40.8881 45.3808 40.7813 44.0271C40.6531 42.4407 40.7279 40.8438 40.7172 39.2469C40.7065 37.1846 39.8201 36.0741 38.1755 36.0636C36.4989 36.053 35.5805 37.1423 35.5805 39.194C35.5698 42.9484 35.5271 46.7133 35.6232 50.4677C35.6659 52.0858 35.1853 53.2597 33.7116 54C33.3272 54 32.9107 54 32.4942 54Z" fill="url(#paint0_linear)"/>
<defs>
<linearGradient id="paint0_linear" x1="56.1273" y1="28.8015" x2="-0.0026631" y2="28.8015" gradientUnits="userSpaceOnUse">
<stop stop-color="#FF6600"/>
<stop offset="1" stop-color="#7B16D9"/>
</linearGradient>
</defs>
</svg>
