<svg width="847" height="1119" viewBox="0 0 847 1119" fill="none" xmlns="http://www.w3.org/2000/svg">
<g opacity="0.2">
<path d="M318.92 954.643C266.334 939.158 226.425 899.799 197.135 855.509C164.367 805.829 142.02 748.482 113.858 696.089C81.6532 635.276 32.3002 593.431 -26.7951 559.159C-75.2044 530.311 -118.759 488.005 -84.8744 420.762C-66.8801 385.094 -34.9196 357.502 -2.34628 333.624C133.812 233.844 333.641 117.952 482.515 193.281C651.302 278.276 642.837 572.754 592.198 749.422C556.538 872.532 453.199 994.347 318.92 954.643Z" fill="#D5CFE3"/>
<path d="M141.424 875.482C143.86 866.506 144.208 857.13 143.198 847.943C141.608 826.055 132.017 807.352 123.104 788.555C113.413 768.484 108.974 740.428 91.6951 724.522C69.2635 703.806 39.7557 717.929 34.7838 748.676C29.7127 778.055 29.8106 807.752 34.6634 836.786C38.5887 862.496 47.3185 888.228 66.6356 903.85C77.5698 912.693 92.0166 917.938 106.182 914.585C119.668 911.327 130.571 900.829 136.519 888.255C138.623 884.163 140.363 879.775 141.424 875.482Z" fill="#D5CFE3"/>
</g>
</svg>
